<mxfile host="Electron" modified="2023-05-06T02:37:35.301Z" agent="Mozilla/5.0 (Windows NT 10.0; Win64; x64) AppleWebKit/537.36 (KHTML, like Gecko) draw.io/21.2.8 Chrome/112.0.5615.165 Electron/24.2.0 Safari/537.36" etag="vrmNtajACTAiuBEiFjur" version="21.2.8" type="device">
  <diagram name="Страница 1" id="SIdzVVNqcK2y1Qo7ken3">
    <mxGraphModel dx="2218" dy="1270" grid="0" gridSize="10" guides="1" tooltips="1" connect="1" arrows="1" fold="1" page="0" pageScale="1" pageWidth="827" pageHeight="1169" math="0" shadow="0">
      <root>
        <mxCell id="0" />
        <mxCell id="1" parent="0" />
        <mxCell id="aI7g65Q8ZS7_M0JVx6DZ-1" value="Students" style="shape=table;startSize=30;container=1;collapsible=1;childLayout=tableLayout;fixedRows=1;rowLines=0;fontStyle=1;align=center;resizeLast=1;fontSize=12;" parent="1" vertex="1">
          <mxGeometry x="-156" y="-190" width="180" height="150" as="geometry" />
        </mxCell>
        <mxCell id="aI7g65Q8ZS7_M0JVx6DZ-2" value="" style="shape=tableRow;horizontal=0;startSize=0;swimlaneHead=0;swimlaneBody=0;fillColor=#008a00;collapsible=0;dropTarget=0;points=[[0,0.5],[1,0.5]];portConstraint=eastwest;top=0;left=0;right=0;bottom=1;fontSize=16;fontColor=#ffffff;strokeColor=#005700;" parent="aI7g65Q8ZS7_M0JVx6DZ-1" vertex="1">
          <mxGeometry y="30" width="180" height="30" as="geometry" />
        </mxCell>
        <mxCell id="aI7g65Q8ZS7_M0JVx6DZ-3" value="PK" style="shape=partialRectangle;connectable=0;fillColor=none;top=0;left=0;bottom=0;right=0;fontStyle=1;overflow=hidden;fontSize=12;" parent="aI7g65Q8ZS7_M0JVx6DZ-2" vertex="1">
          <mxGeometry width="30" height="30" as="geometry">
            <mxRectangle width="30" height="30" as="alternateBounds" />
          </mxGeometry>
        </mxCell>
        <mxCell id="aI7g65Q8ZS7_M0JVx6DZ-4" value="studentID (int 10)" style="shape=partialRectangle;connectable=0;fillColor=none;top=0;left=0;bottom=0;right=0;align=left;spacingLeft=6;fontStyle=5;overflow=hidden;fontSize=12;" parent="aI7g65Q8ZS7_M0JVx6DZ-2" vertex="1">
          <mxGeometry x="30" width="150" height="30" as="geometry">
            <mxRectangle width="150" height="30" as="alternateBounds" />
          </mxGeometry>
        </mxCell>
        <mxCell id="aI7g65Q8ZS7_M0JVx6DZ-5" value="" style="shape=tableRow;horizontal=0;startSize=0;swimlaneHead=0;swimlaneBody=0;fillColor=none;collapsible=0;dropTarget=0;points=[[0,0.5],[1,0.5]];portConstraint=eastwest;top=0;left=0;right=0;bottom=0;fontSize=16;" parent="aI7g65Q8ZS7_M0JVx6DZ-1" vertex="1">
          <mxGeometry y="60" width="180" height="30" as="geometry" />
        </mxCell>
        <mxCell id="aI7g65Q8ZS7_M0JVx6DZ-6" value="" style="shape=partialRectangle;connectable=0;fillColor=none;top=0;left=0;bottom=0;right=0;editable=1;overflow=hidden;fontSize=16;" parent="aI7g65Q8ZS7_M0JVx6DZ-5" vertex="1">
          <mxGeometry width="30" height="30" as="geometry">
            <mxRectangle width="30" height="30" as="alternateBounds" />
          </mxGeometry>
        </mxCell>
        <mxCell id="aI7g65Q8ZS7_M0JVx6DZ-7" value="Last Name (str 30)" style="shape=partialRectangle;connectable=0;fillColor=none;top=0;left=0;bottom=0;right=0;align=left;spacingLeft=6;overflow=hidden;fontSize=12;" parent="aI7g65Q8ZS7_M0JVx6DZ-5" vertex="1">
          <mxGeometry x="30" width="150" height="30" as="geometry">
            <mxRectangle width="150" height="30" as="alternateBounds" />
          </mxGeometry>
        </mxCell>
        <mxCell id="aI7g65Q8ZS7_M0JVx6DZ-8" value="" style="shape=tableRow;horizontal=0;startSize=0;swimlaneHead=0;swimlaneBody=0;fillColor=none;collapsible=0;dropTarget=0;points=[[0,0.5],[1,0.5]];portConstraint=eastwest;top=0;left=0;right=0;bottom=0;fontSize=16;" parent="aI7g65Q8ZS7_M0JVx6DZ-1" vertex="1">
          <mxGeometry y="90" width="180" height="30" as="geometry" />
        </mxCell>
        <mxCell id="aI7g65Q8ZS7_M0JVx6DZ-9" value="" style="shape=partialRectangle;connectable=0;fillColor=none;top=0;left=0;bottom=0;right=0;editable=1;overflow=hidden;fontSize=16;" parent="aI7g65Q8ZS7_M0JVx6DZ-8" vertex="1">
          <mxGeometry width="30" height="30" as="geometry">
            <mxRectangle width="30" height="30" as="alternateBounds" />
          </mxGeometry>
        </mxCell>
        <mxCell id="aI7g65Q8ZS7_M0JVx6DZ-10" value="First Name (str 30)" style="shape=partialRectangle;connectable=0;fillColor=none;top=0;left=0;bottom=0;right=0;align=left;spacingLeft=6;overflow=hidden;fontSize=12;" parent="aI7g65Q8ZS7_M0JVx6DZ-8" vertex="1">
          <mxGeometry x="30" width="150" height="30" as="geometry">
            <mxRectangle width="150" height="30" as="alternateBounds" />
          </mxGeometry>
        </mxCell>
        <mxCell id="aI7g65Q8ZS7_M0JVx6DZ-11" value="" style="shape=tableRow;horizontal=0;startSize=0;swimlaneHead=0;swimlaneBody=0;fillColor=none;collapsible=0;dropTarget=0;points=[[0,0.5],[1,0.5]];portConstraint=eastwest;top=0;left=0;right=0;bottom=0;fontSize=16;" parent="aI7g65Q8ZS7_M0JVx6DZ-1" vertex="1">
          <mxGeometry y="120" width="180" height="30" as="geometry" />
        </mxCell>
        <mxCell id="aI7g65Q8ZS7_M0JVx6DZ-12" value="" style="shape=partialRectangle;connectable=0;fillColor=none;top=0;left=0;bottom=0;right=0;editable=1;overflow=hidden;fontSize=16;" parent="aI7g65Q8ZS7_M0JVx6DZ-11" vertex="1">
          <mxGeometry width="30" height="30" as="geometry">
            <mxRectangle width="30" height="30" as="alternateBounds" />
          </mxGeometry>
        </mxCell>
        <mxCell id="aI7g65Q8ZS7_M0JVx6DZ-13" value="Class (int 5)" style="shape=partialRectangle;connectable=0;fillColor=none;top=0;left=0;bottom=0;right=0;align=left;spacingLeft=6;overflow=hidden;fontSize=12;" parent="aI7g65Q8ZS7_M0JVx6DZ-11" vertex="1">
          <mxGeometry x="30" width="150" height="30" as="geometry">
            <mxRectangle width="150" height="30" as="alternateBounds" />
          </mxGeometry>
        </mxCell>
        <mxCell id="aI7g65Q8ZS7_M0JVx6DZ-14" value="Room" style="shape=table;startSize=30;container=1;collapsible=1;childLayout=tableLayout;fixedRows=1;rowLines=0;fontStyle=1;align=center;resizeLast=1;fontSize=12;" parent="1" vertex="1">
          <mxGeometry x="391" y="-71" width="180" height="120" as="geometry" />
        </mxCell>
        <mxCell id="aI7g65Q8ZS7_M0JVx6DZ-15" value="" style="shape=tableRow;horizontal=0;startSize=0;swimlaneHead=0;swimlaneBody=0;fillColor=#008a00;collapsible=0;dropTarget=0;points=[[0,0.5],[1,0.5]];portConstraint=eastwest;top=0;left=0;right=0;bottom=1;fontSize=16;fontColor=#ffffff;strokeColor=#005700;" parent="aI7g65Q8ZS7_M0JVx6DZ-14" vertex="1">
          <mxGeometry y="30" width="180" height="30" as="geometry" />
        </mxCell>
        <mxCell id="aI7g65Q8ZS7_M0JVx6DZ-16" value="PK" style="shape=partialRectangle;connectable=0;fillColor=none;top=0;left=0;bottom=0;right=0;fontStyle=1;overflow=hidden;fontSize=12;" parent="aI7g65Q8ZS7_M0JVx6DZ-15" vertex="1">
          <mxGeometry width="30" height="30" as="geometry">
            <mxRectangle width="30" height="30" as="alternateBounds" />
          </mxGeometry>
        </mxCell>
        <mxCell id="aI7g65Q8ZS7_M0JVx6DZ-17" value="roomID (int 3)" style="shape=partialRectangle;connectable=0;fillColor=none;top=0;left=0;bottom=0;right=0;align=left;spacingLeft=6;fontStyle=5;overflow=hidden;fontSize=12;" parent="aI7g65Q8ZS7_M0JVx6DZ-15" vertex="1">
          <mxGeometry x="30" width="150" height="30" as="geometry">
            <mxRectangle width="150" height="30" as="alternateBounds" />
          </mxGeometry>
        </mxCell>
        <mxCell id="aI7g65Q8ZS7_M0JVx6DZ-18" value="" style="shape=tableRow;horizontal=0;startSize=0;swimlaneHead=0;swimlaneBody=0;fillColor=none;collapsible=0;dropTarget=0;points=[[0,0.5],[1,0.5]];portConstraint=eastwest;top=0;left=0;right=0;bottom=0;fontSize=16;" parent="aI7g65Q8ZS7_M0JVx6DZ-14" vertex="1">
          <mxGeometry y="60" width="180" height="30" as="geometry" />
        </mxCell>
        <mxCell id="aI7g65Q8ZS7_M0JVx6DZ-19" value="" style="shape=partialRectangle;connectable=0;fillColor=#0050ef;top=0;left=0;bottom=0;right=0;editable=1;overflow=hidden;fontSize=16;fontColor=#ffffff;strokeColor=#001DBC;" parent="aI7g65Q8ZS7_M0JVx6DZ-18" vertex="1">
          <mxGeometry width="30" height="30" as="geometry">
            <mxRectangle width="30" height="30" as="alternateBounds" />
          </mxGeometry>
        </mxCell>
        <mxCell id="aI7g65Q8ZS7_M0JVx6DZ-20" value="Number (int 3) - этаж.№" style="shape=partialRectangle;connectable=0;fillColor=none;top=0;left=0;bottom=0;right=0;align=left;spacingLeft=6;overflow=hidden;fontSize=12;" parent="aI7g65Q8ZS7_M0JVx6DZ-18" vertex="1">
          <mxGeometry x="30" width="150" height="30" as="geometry">
            <mxRectangle width="150" height="30" as="alternateBounds" />
          </mxGeometry>
        </mxCell>
        <mxCell id="aI7g65Q8ZS7_M0JVx6DZ-21" value="" style="shape=tableRow;horizontal=0;startSize=0;swimlaneHead=0;swimlaneBody=0;fillColor=none;collapsible=0;dropTarget=0;points=[[0,0.5],[1,0.5]];portConstraint=eastwest;top=0;left=0;right=0;bottom=0;fontSize=16;" parent="aI7g65Q8ZS7_M0JVx6DZ-14" vertex="1">
          <mxGeometry y="90" width="180" height="30" as="geometry" />
        </mxCell>
        <mxCell id="aI7g65Q8ZS7_M0JVx6DZ-22" value="" style="shape=partialRectangle;connectable=0;fillColor=none;top=0;left=0;bottom=0;right=0;editable=1;overflow=hidden;fontSize=16;" parent="aI7g65Q8ZS7_M0JVx6DZ-21" vertex="1">
          <mxGeometry width="30" height="30" as="geometry">
            <mxRectangle width="30" height="30" as="alternateBounds" />
          </mxGeometry>
        </mxCell>
        <mxCell id="aI7g65Q8ZS7_M0JVx6DZ-23" value="Name (str 50)" style="shape=partialRectangle;connectable=0;fillColor=none;top=0;left=0;bottom=0;right=0;align=left;spacingLeft=6;overflow=hidden;fontSize=12;" parent="aI7g65Q8ZS7_M0JVx6DZ-21" vertex="1">
          <mxGeometry x="30" width="150" height="30" as="geometry">
            <mxRectangle width="150" height="30" as="alternateBounds" />
          </mxGeometry>
        </mxCell>
        <mxCell id="O2P2nsYGGp_tVQYiS5PV-1" value="&lt;header style=&quot;box-sizing: border-box; display: flex; align-items: center; min-height: 55px; padding: 0px 18px 8px 24px; color: rgb(44, 45, 48); font-family: Roboto, &amp;quot;San Francisco&amp;quot;, &amp;quot;Helvetica Neue&amp;quot;, Helvetica, Arial; font-size: 15px; font-style: normal; font-variant-ligatures: normal; font-variant-caps: normal; font-weight: 400; letter-spacing: normal; orphans: 2; text-align: start; text-indent: 0px; text-transform: none; widows: 2; word-spacing: 0px; -webkit-text-stroke-width: 0px; background-color: rgb(255, 255, 255); text-decoration-thickness: initial; text-decoration-style: initial; text-decoration-color: initial;&quot;&gt;&lt;div style=&quot;box-sizing: border-box; flex: 1 1 0%; position: relative;&quot; class=&quot;title-block&quot;&gt;&lt;h3 style=&quot;box-sizing: border-box; font-family: Roboto, sans-serif; font-weight: 500; line-height: 24px; color: rgb(63, 83, 104); margin: 0px; font-size: 17px; font-style: normal;&quot; class=&quot;title&quot;&gt;Урок 3. Создание структуры базы данных&lt;/h3&gt;&lt;/div&gt;&lt;/header&gt;&lt;div style=&quot;box-sizing: border-box; overflow-y: scroll; flex: 1 1 0%; color: rgb(44, 45, 48); font-family: Roboto, &amp;quot;San Francisco&amp;quot;, &amp;quot;Helvetica Neue&amp;quot;, Helvetica, Arial; font-size: 15px; font-style: normal; font-variant-ligatures: normal; font-variant-caps: normal; font-weight: 400; letter-spacing: normal; orphans: 2; text-align: start; text-indent: 0px; text-transform: none; widows: 2; word-spacing: 0px; -webkit-text-stroke-width: 0px; background-color: rgb(255, 255, 255); text-decoration-thickness: initial; text-decoration-style: initial; text-decoration-color: initial;&quot; id=&quot;main-content-wrapper__scrollable-container&quot; class=&quot;main-content-wrapper__scrollable-container&quot;&gt;&lt;div style=&quot;box-sizing: border-box; min-height: 100%;&quot; class=&quot;content&quot;&gt;&lt;div style=&quot;box-sizing: border-box;&quot; class=&quot;content-block content-block_homework&quot;&gt;&lt;div style=&quot;box-sizing: border-box; background-color: rgb(255, 255, 255); padding: 24px; border-radius: 4px; max-height: 100%; visibility: visible; pointer-events: auto; opacity: 1; transform: scaleY(1); transform-origin: left top; transition: transform 0.25s ease 0s, opacity 0.25s ease 0s, visibility 0.25s ease 0s, pointer-events 0.25s ease 0s, max-height 0.3s ease 0s;&quot; class=&quot;task-block js-homework-description-container&quot;&gt;&lt;div style=&quot;box-sizing: border-box;&quot; class=&quot;task-block-teacher&quot;&gt;&lt;p style=&quot;box-sizing: border-box; margin: 0px; font-weight: normal;&quot;&gt;&lt;strong style=&quot;box-sizing: border-box; font-weight: 700;&quot;&gt;Опишите базу данных для школьного кабинета, в рамках которой можно фиксировать, кто и в какое время сидел за той или иной партой.&lt;/strong&gt;&lt;/p&gt;&lt;p style=&quot;box-sizing: border-box; margin: 0px; font-weight: normal;&quot;&gt;— Место ученика — это ряд, парта, вариант.&lt;br style=&quot;box-sizing: border-box;&quot;&gt;— В течение одного дня у разных классов бывает несколько уроков.&lt;br style=&quot;box-sizing: border-box;&quot;&gt;— Создайте минимум 3 таблицы: «Кабинет», «Ученик» и сводная таблица, где отображаются парты и ученики.&lt;br style=&quot;box-sizing: border-box;&quot;&gt;— Используйте поля «начало&lt;u style=&quot;box-sizing: border-box;&quot;&gt;урока» и «конец&lt;/u&gt;урока» с типом данных&lt;span&gt;&amp;nbsp;&lt;/span&gt;&lt;em style=&quot;box-sizing: border-box;&quot;&gt;TimeStamp&lt;/em&gt;.&lt;/p&gt;&lt;/div&gt;&lt;/div&gt;&lt;/div&gt;&lt;/div&gt;&lt;/div&gt;" style="text;whiteSpace=wrap;html=1;fontSize=16;fillColor=#d0cee2;strokeColor=#56517e;" vertex="1" parent="1">
          <mxGeometry x="-793" y="-352" width="550" height="420" as="geometry" />
        </mxCell>
        <mxCell id="O2P2nsYGGp_tVQYiS5PV-2" value="Lesson" style="shape=table;startSize=30;container=1;collapsible=1;childLayout=tableLayout;fixedRows=1;rowLines=0;fontStyle=1;align=center;resizeLast=1;html=1;fontSize=12;" vertex="1" parent="1">
          <mxGeometry x="-156" y="-12" width="180" height="150" as="geometry" />
        </mxCell>
        <mxCell id="O2P2nsYGGp_tVQYiS5PV-3" value="" style="shape=tableRow;horizontal=0;startSize=0;swimlaneHead=0;swimlaneBody=0;fillColor=#008a00;collapsible=0;dropTarget=0;points=[[0,0.5],[1,0.5]];portConstraint=eastwest;top=0;left=0;right=0;bottom=1;fontSize=16;fontColor=#ffffff;strokeColor=#005700;" vertex="1" parent="O2P2nsYGGp_tVQYiS5PV-2">
          <mxGeometry y="30" width="180" height="30" as="geometry" />
        </mxCell>
        <mxCell id="O2P2nsYGGp_tVQYiS5PV-4" value="&lt;font style=&quot;font-size: 12px;&quot;&gt;PK&lt;/font&gt;" style="shape=partialRectangle;connectable=0;fillColor=none;top=0;left=0;bottom=0;right=0;fontStyle=1;overflow=hidden;whiteSpace=wrap;html=1;fontSize=16;" vertex="1" parent="O2P2nsYGGp_tVQYiS5PV-3">
          <mxGeometry width="30" height="30" as="geometry">
            <mxRectangle width="30" height="30" as="alternateBounds" />
          </mxGeometry>
        </mxCell>
        <mxCell id="O2P2nsYGGp_tVQYiS5PV-5" value="lessonID (int 6)" style="shape=partialRectangle;connectable=0;fillColor=none;top=0;left=0;bottom=0;right=0;align=left;spacingLeft=6;fontStyle=5;overflow=hidden;whiteSpace=wrap;html=1;fontSize=12;" vertex="1" parent="O2P2nsYGGp_tVQYiS5PV-3">
          <mxGeometry x="30" width="150" height="30" as="geometry">
            <mxRectangle width="150" height="30" as="alternateBounds" />
          </mxGeometry>
        </mxCell>
        <mxCell id="O2P2nsYGGp_tVQYiS5PV-6" value="" style="shape=tableRow;horizontal=0;startSize=0;swimlaneHead=0;swimlaneBody=0;fillColor=none;collapsible=0;dropTarget=0;points=[[0,0.5],[1,0.5]];portConstraint=eastwest;top=0;left=0;right=0;bottom=0;fontSize=16;" vertex="1" parent="O2P2nsYGGp_tVQYiS5PV-2">
          <mxGeometry y="60" width="180" height="30" as="geometry" />
        </mxCell>
        <mxCell id="O2P2nsYGGp_tVQYiS5PV-7" value="" style="shape=partialRectangle;connectable=0;fillColor=#6a00ff;top=0;left=0;bottom=0;right=0;editable=1;overflow=hidden;whiteSpace=wrap;html=1;fontSize=16;fontColor=#ffffff;strokeColor=#3700CC;" vertex="1" parent="O2P2nsYGGp_tVQYiS5PV-6">
          <mxGeometry width="30" height="30" as="geometry">
            <mxRectangle width="30" height="30" as="alternateBounds" />
          </mxGeometry>
        </mxCell>
        <mxCell id="O2P2nsYGGp_tVQYiS5PV-8" value="Course (int 3)" style="shape=partialRectangle;connectable=0;fillColor=none;top=0;left=0;bottom=0;right=0;align=left;spacingLeft=6;overflow=hidden;whiteSpace=wrap;html=1;fontSize=12;" vertex="1" parent="O2P2nsYGGp_tVQYiS5PV-6">
          <mxGeometry x="30" width="150" height="30" as="geometry">
            <mxRectangle width="150" height="30" as="alternateBounds" />
          </mxGeometry>
        </mxCell>
        <mxCell id="O2P2nsYGGp_tVQYiS5PV-9" value="" style="shape=tableRow;horizontal=0;startSize=0;swimlaneHead=0;swimlaneBody=0;fillColor=none;collapsible=0;dropTarget=0;points=[[0,0.5],[1,0.5]];portConstraint=eastwest;top=0;left=0;right=0;bottom=0;fontSize=16;" vertex="1" parent="O2P2nsYGGp_tVQYiS5PV-2">
          <mxGeometry y="90" width="180" height="30" as="geometry" />
        </mxCell>
        <mxCell id="O2P2nsYGGp_tVQYiS5PV-10" value="" style="shape=partialRectangle;connectable=0;fillColor=#6a00ff;top=0;left=0;bottom=0;right=0;editable=1;overflow=hidden;whiteSpace=wrap;html=1;fontSize=16;fontColor=#ffffff;strokeColor=#3700CC;" vertex="1" parent="O2P2nsYGGp_tVQYiS5PV-9">
          <mxGeometry width="30" height="30" as="geometry">
            <mxRectangle width="30" height="30" as="alternateBounds" />
          </mxGeometry>
        </mxCell>
        <mxCell id="O2P2nsYGGp_tVQYiS5PV-11" value="Name (str 50)" style="shape=partialRectangle;connectable=0;fillColor=none;top=0;left=0;bottom=0;right=0;align=left;spacingLeft=6;overflow=hidden;whiteSpace=wrap;html=1;fontSize=12;" vertex="1" parent="O2P2nsYGGp_tVQYiS5PV-9">
          <mxGeometry x="30" width="150" height="30" as="geometry">
            <mxRectangle width="150" height="30" as="alternateBounds" />
          </mxGeometry>
        </mxCell>
        <mxCell id="O2P2nsYGGp_tVQYiS5PV-89" value="" style="shape=tableRow;horizontal=0;startSize=0;swimlaneHead=0;swimlaneBody=0;fillColor=none;collapsible=0;dropTarget=0;points=[[0,0.5],[1,0.5]];portConstraint=eastwest;top=0;left=0;right=0;bottom=0;fontSize=16;" vertex="1" parent="O2P2nsYGGp_tVQYiS5PV-2">
          <mxGeometry y="120" width="180" height="30" as="geometry" />
        </mxCell>
        <mxCell id="O2P2nsYGGp_tVQYiS5PV-90" value="" style="shape=partialRectangle;connectable=0;fillColor=#6a00ff;top=0;left=0;bottom=0;right=0;editable=1;overflow=hidden;whiteSpace=wrap;html=1;fontSize=16;fontColor=#ffffff;strokeColor=#3700CC;" vertex="1" parent="O2P2nsYGGp_tVQYiS5PV-89">
          <mxGeometry width="30" height="30" as="geometry">
            <mxRectangle width="30" height="30" as="alternateBounds" />
          </mxGeometry>
        </mxCell>
        <mxCell id="O2P2nsYGGp_tVQYiS5PV-91" value="YearOfStudy (int 2)" style="shape=partialRectangle;connectable=0;fillColor=none;top=0;left=0;bottom=0;right=0;align=left;spacingLeft=6;overflow=hidden;whiteSpace=wrap;html=1;fontSize=12;" vertex="1" parent="O2P2nsYGGp_tVQYiS5PV-89">
          <mxGeometry x="30" width="150" height="30" as="geometry">
            <mxRectangle width="150" height="30" as="alternateBounds" />
          </mxGeometry>
        </mxCell>
        <mxCell id="O2P2nsYGGp_tVQYiS5PV-15" value="Class&lt;br style=&quot;font-size: 12px;&quot;&gt;" style="shape=table;startSize=30;container=1;collapsible=1;childLayout=tableLayout;fixedRows=1;rowLines=0;fontStyle=1;align=center;resizeLast=1;html=1;fontSize=12;" vertex="1" parent="1">
          <mxGeometry x="-154" y="182" width="180" height="196" as="geometry" />
        </mxCell>
        <mxCell id="O2P2nsYGGp_tVQYiS5PV-16" value="" style="shape=tableRow;horizontal=0;startSize=0;swimlaneHead=0;swimlaneBody=0;fillColor=#008a00;collapsible=0;dropTarget=0;points=[[0,0.5],[1,0.5]];portConstraint=eastwest;top=0;left=0;right=0;bottom=1;fontSize=16;fontColor=#ffffff;strokeColor=#005700;" vertex="1" parent="O2P2nsYGGp_tVQYiS5PV-15">
          <mxGeometry y="30" width="180" height="46" as="geometry" />
        </mxCell>
        <mxCell id="O2P2nsYGGp_tVQYiS5PV-17" value="PK" style="shape=partialRectangle;connectable=0;fillColor=none;top=0;left=0;bottom=0;right=0;fontStyle=1;overflow=hidden;whiteSpace=wrap;html=1;fontSize=12;" vertex="1" parent="O2P2nsYGGp_tVQYiS5PV-16">
          <mxGeometry width="30" height="46" as="geometry">
            <mxRectangle width="30" height="46" as="alternateBounds" />
          </mxGeometry>
        </mxCell>
        <mxCell id="O2P2nsYGGp_tVQYiS5PV-18" value="ClassID (int 5)" style="shape=partialRectangle;connectable=0;fillColor=none;top=0;left=0;bottom=0;right=0;align=left;spacingLeft=6;fontStyle=5;overflow=hidden;whiteSpace=wrap;html=1;fontSize=12;" vertex="1" parent="O2P2nsYGGp_tVQYiS5PV-16">
          <mxGeometry x="30" width="150" height="46" as="geometry">
            <mxRectangle width="150" height="46" as="alternateBounds" />
          </mxGeometry>
        </mxCell>
        <mxCell id="O2P2nsYGGp_tVQYiS5PV-19" value="" style="shape=tableRow;horizontal=0;startSize=0;swimlaneHead=0;swimlaneBody=0;fillColor=none;collapsible=0;dropTarget=0;points=[[0,0.5],[1,0.5]];portConstraint=eastwest;top=0;left=0;right=0;bottom=0;fontSize=16;" vertex="1" parent="O2P2nsYGGp_tVQYiS5PV-15">
          <mxGeometry y="76" width="180" height="30" as="geometry" />
        </mxCell>
        <mxCell id="O2P2nsYGGp_tVQYiS5PV-20" value="" style="shape=partialRectangle;connectable=0;fillColor=#6a00ff;top=0;left=0;bottom=0;right=0;editable=1;overflow=hidden;whiteSpace=wrap;html=1;fontSize=16;fontColor=#ffffff;strokeColor=#3700CC;" vertex="1" parent="O2P2nsYGGp_tVQYiS5PV-19">
          <mxGeometry width="30" height="30" as="geometry">
            <mxRectangle width="30" height="30" as="alternateBounds" />
          </mxGeometry>
        </mxCell>
        <mxCell id="O2P2nsYGGp_tVQYiS5PV-21" value="FirstYear (int 4)" style="shape=partialRectangle;connectable=0;fillColor=none;top=0;left=0;bottom=0;right=0;align=left;spacingLeft=6;overflow=hidden;whiteSpace=wrap;html=1;fontSize=12;" vertex="1" parent="O2P2nsYGGp_tVQYiS5PV-19">
          <mxGeometry x="30" width="150" height="30" as="geometry">
            <mxRectangle width="150" height="30" as="alternateBounds" />
          </mxGeometry>
        </mxCell>
        <mxCell id="O2P2nsYGGp_tVQYiS5PV-22" value="" style="shape=tableRow;horizontal=0;startSize=0;swimlaneHead=0;swimlaneBody=0;fillColor=none;collapsible=0;dropTarget=0;points=[[0,0.5],[1,0.5]];portConstraint=eastwest;top=0;left=0;right=0;bottom=0;fontSize=16;" vertex="1" parent="O2P2nsYGGp_tVQYiS5PV-15">
          <mxGeometry y="106" width="180" height="30" as="geometry" />
        </mxCell>
        <mxCell id="O2P2nsYGGp_tVQYiS5PV-23" value="" style="shape=partialRectangle;connectable=0;fillColor=#6a00ff;top=0;left=0;bottom=0;right=0;editable=1;overflow=hidden;whiteSpace=wrap;html=1;fontSize=16;fontColor=#ffffff;strokeColor=#3700CC;" vertex="1" parent="O2P2nsYGGp_tVQYiS5PV-22">
          <mxGeometry width="30" height="30" as="geometry">
            <mxRectangle width="30" height="30" as="alternateBounds" />
          </mxGeometry>
        </mxCell>
        <mxCell id="O2P2nsYGGp_tVQYiS5PV-24" value="LastYear (int 4)" style="shape=partialRectangle;connectable=0;fillColor=none;top=0;left=0;bottom=0;right=0;align=left;spacingLeft=6;overflow=hidden;whiteSpace=wrap;html=1;fontSize=12;" vertex="1" parent="O2P2nsYGGp_tVQYiS5PV-22">
          <mxGeometry x="30" width="150" height="30" as="geometry">
            <mxRectangle width="150" height="30" as="alternateBounds" />
          </mxGeometry>
        </mxCell>
        <mxCell id="O2P2nsYGGp_tVQYiS5PV-25" value="" style="shape=tableRow;horizontal=0;startSize=0;swimlaneHead=0;swimlaneBody=0;fillColor=none;collapsible=0;dropTarget=0;points=[[0,0.5],[1,0.5]];portConstraint=eastwest;top=0;left=0;right=0;bottom=0;fontSize=16;" vertex="1" parent="O2P2nsYGGp_tVQYiS5PV-15">
          <mxGeometry y="136" width="180" height="30" as="geometry" />
        </mxCell>
        <mxCell id="O2P2nsYGGp_tVQYiS5PV-26" value="" style="shape=partialRectangle;connectable=0;fillColor=#6a00ff;top=0;left=0;bottom=0;right=0;editable=1;overflow=hidden;whiteSpace=wrap;html=1;fontSize=16;fontColor=#ffffff;strokeColor=#3700CC;" vertex="1" parent="O2P2nsYGGp_tVQYiS5PV-25">
          <mxGeometry width="30" height="30" as="geometry">
            <mxRectangle width="30" height="30" as="alternateBounds" />
          </mxGeometry>
        </mxCell>
        <mxCell id="O2P2nsYGGp_tVQYiS5PV-27" value="Letter (int 2)" style="shape=partialRectangle;connectable=0;fillColor=none;top=0;left=0;bottom=0;right=0;align=left;spacingLeft=6;overflow=hidden;whiteSpace=wrap;html=1;fontSize=12;" vertex="1" parent="O2P2nsYGGp_tVQYiS5PV-25">
          <mxGeometry x="30" width="150" height="30" as="geometry">
            <mxRectangle width="150" height="30" as="alternateBounds" />
          </mxGeometry>
        </mxCell>
        <mxCell id="O2P2nsYGGp_tVQYiS5PV-190" value="" style="shape=tableRow;horizontal=0;startSize=0;swimlaneHead=0;swimlaneBody=0;fillColor=none;collapsible=0;dropTarget=0;points=[[0,0.5],[1,0.5]];portConstraint=eastwest;top=0;left=0;right=0;bottom=0;fontSize=16;" vertex="1" parent="O2P2nsYGGp_tVQYiS5PV-15">
          <mxGeometry y="166" width="180" height="30" as="geometry" />
        </mxCell>
        <mxCell id="O2P2nsYGGp_tVQYiS5PV-191" value="" style="shape=partialRectangle;connectable=0;top=0;left=0;bottom=0;right=0;editable=1;overflow=hidden;whiteSpace=wrap;html=1;fontSize=16;" vertex="1" parent="O2P2nsYGGp_tVQYiS5PV-190">
          <mxGeometry width="30" height="30" as="geometry">
            <mxRectangle width="30" height="30" as="alternateBounds" />
          </mxGeometry>
        </mxCell>
        <mxCell id="O2P2nsYGGp_tVQYiS5PV-192" value="ClassMentor (int 5)" style="shape=partialRectangle;connectable=0;fillColor=none;top=0;left=0;bottom=0;right=0;align=left;spacingLeft=6;overflow=hidden;whiteSpace=wrap;html=1;fontSize=12;" vertex="1" parent="O2P2nsYGGp_tVQYiS5PV-190">
          <mxGeometry x="30" width="150" height="30" as="geometry">
            <mxRectangle width="150" height="30" as="alternateBounds" />
          </mxGeometry>
        </mxCell>
        <mxCell id="O2P2nsYGGp_tVQYiS5PV-28" value="Place_Time_Busy" style="shape=table;startSize=30;container=1;collapsible=1;childLayout=tableLayout;fixedRows=1;rowLines=0;fontStyle=1;align=center;resizeLast=1;html=1;fontSize=12;" vertex="1" parent="1">
          <mxGeometry x="109" y="-340" width="181" height="210" as="geometry" />
        </mxCell>
        <mxCell id="O2P2nsYGGp_tVQYiS5PV-29" value="" style="shape=tableRow;horizontal=0;startSize=0;swimlaneHead=0;swimlaneBody=0;fillColor=#008a00;collapsible=0;dropTarget=0;points=[[0,0.5],[1,0.5]];portConstraint=eastwest;top=0;left=0;right=0;bottom=1;fontSize=16;fontColor=#ffffff;strokeColor=#005700;" vertex="1" parent="O2P2nsYGGp_tVQYiS5PV-28">
          <mxGeometry y="30" width="181" height="30" as="geometry" />
        </mxCell>
        <mxCell id="O2P2nsYGGp_tVQYiS5PV-30" value="PK" style="shape=partialRectangle;connectable=0;fillColor=none;top=0;left=0;bottom=0;right=0;fontStyle=1;overflow=hidden;whiteSpace=wrap;html=1;fontSize=12;" vertex="1" parent="O2P2nsYGGp_tVQYiS5PV-29">
          <mxGeometry width="30" height="30" as="geometry">
            <mxRectangle width="30" height="30" as="alternateBounds" />
          </mxGeometry>
        </mxCell>
        <mxCell id="O2P2nsYGGp_tVQYiS5PV-31" value="placeID (int 10)" style="shape=partialRectangle;connectable=0;fillColor=none;top=0;left=0;bottom=0;right=0;align=left;spacingLeft=6;fontStyle=5;overflow=hidden;whiteSpace=wrap;html=1;fontSize=12;" vertex="1" parent="O2P2nsYGGp_tVQYiS5PV-29">
          <mxGeometry x="30" width="151" height="30" as="geometry">
            <mxRectangle width="151" height="30" as="alternateBounds" />
          </mxGeometry>
        </mxCell>
        <mxCell id="O2P2nsYGGp_tVQYiS5PV-70" value="" style="shape=tableRow;horizontal=0;startSize=0;swimlaneHead=0;swimlaneBody=0;fillColor=none;collapsible=0;dropTarget=0;points=[[0,0.5],[1,0.5]];portConstraint=eastwest;top=0;left=0;right=0;bottom=0;fontSize=16;" vertex="1" parent="O2P2nsYGGp_tVQYiS5PV-28">
          <mxGeometry y="60" width="181" height="30" as="geometry" />
        </mxCell>
        <mxCell id="O2P2nsYGGp_tVQYiS5PV-71" value="" style="shape=partialRectangle;connectable=0;fillColor=#6a00ff;top=0;left=0;bottom=0;right=0;editable=1;overflow=hidden;whiteSpace=wrap;html=1;fontSize=16;fontColor=#ffffff;strokeColor=#3700CC;" vertex="1" parent="O2P2nsYGGp_tVQYiS5PV-70">
          <mxGeometry width="30" height="30" as="geometry">
            <mxRectangle width="30" height="30" as="alternateBounds" />
          </mxGeometry>
        </mxCell>
        <mxCell id="O2P2nsYGGp_tVQYiS5PV-72" value="LessonTimeLine" style="shape=partialRectangle;connectable=0;fillColor=none;top=0;left=0;bottom=0;right=0;align=left;spacingLeft=6;overflow=hidden;whiteSpace=wrap;html=1;fontSize=12;" vertex="1" parent="O2P2nsYGGp_tVQYiS5PV-70">
          <mxGeometry x="30" width="151" height="30" as="geometry">
            <mxRectangle width="151" height="30" as="alternateBounds" />
          </mxGeometry>
        </mxCell>
        <mxCell id="O2P2nsYGGp_tVQYiS5PV-35" value="" style="shape=tableRow;horizontal=0;startSize=0;swimlaneHead=0;swimlaneBody=0;fillColor=none;collapsible=0;dropTarget=0;points=[[0,0.5],[1,0.5]];portConstraint=eastwest;top=0;left=0;right=0;bottom=0;fontSize=16;" vertex="1" parent="O2P2nsYGGp_tVQYiS5PV-28">
          <mxGeometry y="90" width="181" height="30" as="geometry" />
        </mxCell>
        <mxCell id="O2P2nsYGGp_tVQYiS5PV-36" value="" style="shape=partialRectangle;connectable=0;fillColor=#6a00ff;top=0;left=0;bottom=0;right=0;editable=1;overflow=hidden;whiteSpace=wrap;html=1;fontSize=16;fontColor=#ffffff;strokeColor=#3700CC;" vertex="1" parent="O2P2nsYGGp_tVQYiS5PV-35">
          <mxGeometry width="30" height="30" as="geometry">
            <mxRectangle width="30" height="30" as="alternateBounds" />
          </mxGeometry>
        </mxCell>
        <mxCell id="O2P2nsYGGp_tVQYiS5PV-37" value="Column (int 1)" style="shape=partialRectangle;connectable=0;fillColor=none;top=0;left=0;bottom=0;right=0;align=left;spacingLeft=6;overflow=hidden;whiteSpace=wrap;html=1;fontSize=12;" vertex="1" parent="O2P2nsYGGp_tVQYiS5PV-35">
          <mxGeometry x="30" width="151" height="30" as="geometry">
            <mxRectangle width="151" height="30" as="alternateBounds" />
          </mxGeometry>
        </mxCell>
        <mxCell id="O2P2nsYGGp_tVQYiS5PV-38" value="" style="shape=tableRow;horizontal=0;startSize=0;swimlaneHead=0;swimlaneBody=0;fillColor=none;collapsible=0;dropTarget=0;points=[[0,0.5],[1,0.5]];portConstraint=eastwest;top=0;left=0;right=0;bottom=0;fontSize=16;" vertex="1" parent="O2P2nsYGGp_tVQYiS5PV-28">
          <mxGeometry y="120" width="181" height="30" as="geometry" />
        </mxCell>
        <mxCell id="O2P2nsYGGp_tVQYiS5PV-39" value="" style="shape=partialRectangle;connectable=0;fillColor=#6a00ff;top=0;left=0;bottom=0;right=0;editable=1;overflow=hidden;whiteSpace=wrap;html=1;fontSize=16;fontColor=#ffffff;strokeColor=#3700CC;" vertex="1" parent="O2P2nsYGGp_tVQYiS5PV-38">
          <mxGeometry width="30" height="30" as="geometry">
            <mxRectangle width="30" height="30" as="alternateBounds" />
          </mxGeometry>
        </mxCell>
        <mxCell id="O2P2nsYGGp_tVQYiS5PV-40" value="Number (int 2)" style="shape=partialRectangle;connectable=0;fillColor=none;top=0;left=0;bottom=0;right=0;align=left;spacingLeft=6;overflow=hidden;whiteSpace=wrap;html=1;fontSize=12;" vertex="1" parent="O2P2nsYGGp_tVQYiS5PV-38">
          <mxGeometry x="30" width="151" height="30" as="geometry">
            <mxRectangle width="151" height="30" as="alternateBounds" />
          </mxGeometry>
        </mxCell>
        <mxCell id="O2P2nsYGGp_tVQYiS5PV-67" value="" style="shape=tableRow;horizontal=0;startSize=0;swimlaneHead=0;swimlaneBody=0;fillColor=none;collapsible=0;dropTarget=0;points=[[0,0.5],[1,0.5]];portConstraint=eastwest;top=0;left=0;right=0;bottom=0;fontSize=16;" vertex="1" parent="O2P2nsYGGp_tVQYiS5PV-28">
          <mxGeometry y="150" width="181" height="30" as="geometry" />
        </mxCell>
        <mxCell id="O2P2nsYGGp_tVQYiS5PV-68" value="" style="shape=partialRectangle;connectable=0;fillColor=#6a00ff;top=0;left=0;bottom=0;right=0;editable=1;overflow=hidden;whiteSpace=wrap;html=1;fontSize=16;fontColor=#ffffff;strokeColor=#3700CC;" vertex="1" parent="O2P2nsYGGp_tVQYiS5PV-67">
          <mxGeometry width="30" height="30" as="geometry">
            <mxRectangle width="30" height="30" as="alternateBounds" />
          </mxGeometry>
        </mxCell>
        <mxCell id="O2P2nsYGGp_tVQYiS5PV-69" value="Side (int1)" style="shape=partialRectangle;connectable=0;fillColor=none;top=0;left=0;bottom=0;right=0;align=left;spacingLeft=6;overflow=hidden;whiteSpace=wrap;html=1;fontSize=12;" vertex="1" parent="O2P2nsYGGp_tVQYiS5PV-67">
          <mxGeometry x="30" width="151" height="30" as="geometry">
            <mxRectangle width="151" height="30" as="alternateBounds" />
          </mxGeometry>
        </mxCell>
        <mxCell id="O2P2nsYGGp_tVQYiS5PV-79" value="" style="shape=tableRow;horizontal=0;startSize=0;swimlaneHead=0;swimlaneBody=0;fillColor=none;collapsible=0;dropTarget=0;points=[[0,0.5],[1,0.5]];portConstraint=eastwest;top=0;left=0;right=0;bottom=0;fontSize=16;" vertex="1" parent="O2P2nsYGGp_tVQYiS5PV-28">
          <mxGeometry y="180" width="181" height="30" as="geometry" />
        </mxCell>
        <mxCell id="O2P2nsYGGp_tVQYiS5PV-80" value="" style="shape=partialRectangle;connectable=0;fillColor=none;top=0;left=0;bottom=0;right=0;editable=1;overflow=hidden;whiteSpace=wrap;html=1;fontSize=16;" vertex="1" parent="O2P2nsYGGp_tVQYiS5PV-79">
          <mxGeometry width="30" height="30" as="geometry">
            <mxRectangle width="30" height="30" as="alternateBounds" />
          </mxGeometry>
        </mxCell>
        <mxCell id="O2P2nsYGGp_tVQYiS5PV-81" value="Student (int 10)" style="shape=partialRectangle;connectable=0;fillColor=none;top=0;left=0;bottom=0;right=0;align=left;spacingLeft=6;overflow=hidden;whiteSpace=wrap;html=1;fontSize=12;" vertex="1" parent="O2P2nsYGGp_tVQYiS5PV-79">
          <mxGeometry x="30" width="151" height="30" as="geometry">
            <mxRectangle width="151" height="30" as="alternateBounds" />
          </mxGeometry>
        </mxCell>
        <mxCell id="O2P2nsYGGp_tVQYiS5PV-41" value="" style="shape=tableRow;horizontal=0;startSize=0;swimlaneHead=0;swimlaneBody=0;fillColor=none;collapsible=0;dropTarget=0;points=[[0,0.5],[1,0.5]];portConstraint=eastwest;top=0;left=0;right=0;bottom=0;fontSize=16;" vertex="1" parent="1">
          <mxGeometry x="-190" y="398" width="217" height="40" as="geometry" />
        </mxCell>
        <mxCell id="O2P2nsYGGp_tVQYiS5PV-42" value="" style="shape=partialRectangle;connectable=0;fillColor=none;top=0;left=0;bottom=0;right=0;editable=1;overflow=hidden;whiteSpace=wrap;html=1;fontSize=16;" vertex="1" parent="O2P2nsYGGp_tVQYiS5PV-41">
          <mxGeometry width="30" height="30" as="geometry">
            <mxRectangle width="30" height="30" as="alternateBounds" />
          </mxGeometry>
        </mxCell>
        <mxCell id="O2P2nsYGGp_tVQYiS5PV-88" style="edgeStyle=none;shape=connector;rounded=0;orthogonalLoop=1;jettySize=auto;html=1;exitX=1;exitY=0.5;exitDx=0;exitDy=0;labelBackgroundColor=default;strokeColor=default;fontFamily=Helvetica;fontSize=12;fontColor=default;startArrow=ERone;startFill=0;endArrow=ERmany;endFill=0;startSize=8;endSize=8;entryX=0;entryY=0.5;entryDx=0;entryDy=0;" edge="1" parent="1" source="O2P2nsYGGp_tVQYiS5PV-3" target="O2P2nsYGGp_tVQYiS5PV-165">
          <mxGeometry relative="1" as="geometry">
            <mxPoint x="205" y="-19" as="targetPoint" />
            <Array as="points">
              <mxPoint x="52" y="32" />
              <mxPoint x="52" y="-33" />
              <mxPoint x="303" y="-33" />
              <mxPoint x="306" y="-205" />
              <mxPoint x="343" y="-205" />
            </Array>
          </mxGeometry>
        </mxCell>
        <mxCell id="O2P2nsYGGp_tVQYiS5PV-92" value="Courses (Предмет)" style="shape=table;startSize=30;container=1;collapsible=1;childLayout=tableLayout;fixedRows=1;rowLines=0;fontStyle=1;align=center;resizeLast=1;html=1;fontFamily=Helvetica;fontSize=12;fontColor=default;" vertex="1" parent="1">
          <mxGeometry x="109" y="17" width="180" height="90" as="geometry" />
        </mxCell>
        <mxCell id="O2P2nsYGGp_tVQYiS5PV-93" value="" style="shape=tableRow;horizontal=0;startSize=0;swimlaneHead=0;swimlaneBody=0;fillColor=#008a00;collapsible=0;dropTarget=0;points=[[0,0.5],[1,0.5]];portConstraint=eastwest;top=0;left=0;right=0;bottom=1;fontFamily=Helvetica;fontSize=12;fontColor=#ffffff;strokeColor=#005700;" vertex="1" parent="O2P2nsYGGp_tVQYiS5PV-92">
          <mxGeometry y="30" width="180" height="30" as="geometry" />
        </mxCell>
        <mxCell id="O2P2nsYGGp_tVQYiS5PV-94" value="PK" style="shape=partialRectangle;connectable=0;fillColor=none;top=0;left=0;bottom=0;right=0;fontStyle=1;overflow=hidden;whiteSpace=wrap;html=1;fontFamily=Helvetica;fontSize=12;fontColor=default;" vertex="1" parent="O2P2nsYGGp_tVQYiS5PV-93">
          <mxGeometry width="30" height="30" as="geometry">
            <mxRectangle width="30" height="30" as="alternateBounds" />
          </mxGeometry>
        </mxCell>
        <mxCell id="O2P2nsYGGp_tVQYiS5PV-95" value="courseID (int 3)" style="shape=partialRectangle;connectable=0;fillColor=none;top=0;left=0;bottom=0;right=0;align=left;spacingLeft=6;fontStyle=5;overflow=hidden;whiteSpace=wrap;html=1;fontFamily=Helvetica;fontSize=12;fontColor=default;" vertex="1" parent="O2P2nsYGGp_tVQYiS5PV-93">
          <mxGeometry x="30" width="150" height="30" as="geometry">
            <mxRectangle width="150" height="30" as="alternateBounds" />
          </mxGeometry>
        </mxCell>
        <mxCell id="O2P2nsYGGp_tVQYiS5PV-96" value="" style="shape=tableRow;horizontal=0;startSize=0;swimlaneHead=0;swimlaneBody=0;fillColor=none;collapsible=0;dropTarget=0;points=[[0,0.5],[1,0.5]];portConstraint=eastwest;top=0;left=0;right=0;bottom=0;fontFamily=Helvetica;fontSize=12;fontColor=default;" vertex="1" parent="O2P2nsYGGp_tVQYiS5PV-92">
          <mxGeometry y="60" width="180" height="30" as="geometry" />
        </mxCell>
        <mxCell id="O2P2nsYGGp_tVQYiS5PV-97" value="" style="shape=partialRectangle;connectable=0;fillColor=#0050ef;top=0;left=0;bottom=0;right=0;editable=1;overflow=hidden;whiteSpace=wrap;html=1;fontFamily=Helvetica;fontSize=12;fontColor=#ffffff;strokeColor=#001DBC;" vertex="1" parent="O2P2nsYGGp_tVQYiS5PV-96">
          <mxGeometry width="30" height="30" as="geometry">
            <mxRectangle width="30" height="30" as="alternateBounds" />
          </mxGeometry>
        </mxCell>
        <mxCell id="O2P2nsYGGp_tVQYiS5PV-98" value="Name (str 50)" style="shape=partialRectangle;connectable=0;fillColor=none;top=0;left=0;bottom=0;right=0;align=left;spacingLeft=6;overflow=hidden;whiteSpace=wrap;html=1;fontFamily=Helvetica;fontSize=12;fontColor=default;" vertex="1" parent="O2P2nsYGGp_tVQYiS5PV-96">
          <mxGeometry x="30" width="150" height="30" as="geometry">
            <mxRectangle width="150" height="30" as="alternateBounds" />
          </mxGeometry>
        </mxCell>
        <mxCell id="O2P2nsYGGp_tVQYiS5PV-105" style="edgeStyle=none;shape=connector;rounded=0;orthogonalLoop=1;jettySize=auto;html=1;exitX=0;exitY=0.5;exitDx=0;exitDy=0;entryX=1;entryY=0.5;entryDx=0;entryDy=0;labelBackgroundColor=default;strokeColor=default;fontFamily=Helvetica;fontSize=12;fontColor=default;startArrow=ERone;startFill=0;endArrow=ERmany;endFill=0;startSize=8;endSize=8;" edge="1" parent="1" source="O2P2nsYGGp_tVQYiS5PV-93" target="O2P2nsYGGp_tVQYiS5PV-6">
          <mxGeometry relative="1" as="geometry">
            <Array as="points" />
          </mxGeometry>
        </mxCell>
        <mxCell id="O2P2nsYGGp_tVQYiS5PV-106" value="Sides (Варианты)" style="shape=table;startSize=30;container=1;collapsible=1;childLayout=tableLayout;fixedRows=1;rowLines=0;fontStyle=1;align=center;resizeLast=1;html=1;fontFamily=Helvetica;fontSize=12;fontColor=default;" vertex="1" parent="1">
          <mxGeometry x="-156" y="-339" width="180" height="90" as="geometry" />
        </mxCell>
        <mxCell id="O2P2nsYGGp_tVQYiS5PV-107" value="" style="shape=tableRow;horizontal=0;startSize=0;swimlaneHead=0;swimlaneBody=0;fillColor=#008a00;collapsible=0;dropTarget=0;points=[[0,0.5],[1,0.5]];portConstraint=eastwest;top=0;left=0;right=0;bottom=1;fontFamily=Helvetica;fontSize=12;fontColor=#ffffff;strokeColor=#005700;" vertex="1" parent="O2P2nsYGGp_tVQYiS5PV-106">
          <mxGeometry y="30" width="180" height="30" as="geometry" />
        </mxCell>
        <mxCell id="O2P2nsYGGp_tVQYiS5PV-108" value="PK" style="shape=partialRectangle;connectable=0;fillColor=none;top=0;left=0;bottom=0;right=0;fontStyle=1;overflow=hidden;whiteSpace=wrap;html=1;fontFamily=Helvetica;fontSize=12;fontColor=default;" vertex="1" parent="O2P2nsYGGp_tVQYiS5PV-107">
          <mxGeometry width="30" height="30" as="geometry">
            <mxRectangle width="30" height="30" as="alternateBounds" />
          </mxGeometry>
        </mxCell>
        <mxCell id="O2P2nsYGGp_tVQYiS5PV-109" value="sideID" style="shape=partialRectangle;connectable=0;fillColor=none;top=0;left=0;bottom=0;right=0;align=left;spacingLeft=6;fontStyle=5;overflow=hidden;whiteSpace=wrap;html=1;fontFamily=Helvetica;fontSize=12;fontColor=default;" vertex="1" parent="O2P2nsYGGp_tVQYiS5PV-107">
          <mxGeometry x="30" width="150" height="30" as="geometry">
            <mxRectangle width="150" height="30" as="alternateBounds" />
          </mxGeometry>
        </mxCell>
        <mxCell id="O2P2nsYGGp_tVQYiS5PV-110" value="" style="shape=tableRow;horizontal=0;startSize=0;swimlaneHead=0;swimlaneBody=0;fillColor=none;collapsible=0;dropTarget=0;points=[[0,0.5],[1,0.5]];portConstraint=eastwest;top=0;left=0;right=0;bottom=0;fontFamily=Helvetica;fontSize=12;fontColor=default;" vertex="1" parent="O2P2nsYGGp_tVQYiS5PV-106">
          <mxGeometry y="60" width="180" height="30" as="geometry" />
        </mxCell>
        <mxCell id="O2P2nsYGGp_tVQYiS5PV-111" value="" style="shape=partialRectangle;connectable=0;fillColor=#0050ef;top=0;left=0;bottom=0;right=0;editable=1;overflow=hidden;whiteSpace=wrap;html=1;fontFamily=Helvetica;fontSize=12;fontColor=#ffffff;strokeColor=#001DBC;" vertex="1" parent="O2P2nsYGGp_tVQYiS5PV-110">
          <mxGeometry width="30" height="30" as="geometry">
            <mxRectangle width="30" height="30" as="alternateBounds" />
          </mxGeometry>
        </mxCell>
        <mxCell id="O2P2nsYGGp_tVQYiS5PV-112" value="Name (str 1)" style="shape=partialRectangle;connectable=0;fillColor=none;top=0;left=0;bottom=0;right=0;align=left;spacingLeft=6;overflow=hidden;whiteSpace=wrap;html=1;fontFamily=Helvetica;fontSize=12;fontColor=default;" vertex="1" parent="O2P2nsYGGp_tVQYiS5PV-110">
          <mxGeometry x="30" width="150" height="30" as="geometry">
            <mxRectangle width="150" height="30" as="alternateBounds" />
          </mxGeometry>
        </mxCell>
        <mxCell id="O2P2nsYGGp_tVQYiS5PV-119" style="edgeStyle=none;shape=connector;rounded=0;orthogonalLoop=1;jettySize=auto;html=1;exitX=0;exitY=0.5;exitDx=0;exitDy=0;entryX=0;entryY=0.5;entryDx=0;entryDy=0;labelBackgroundColor=default;strokeColor=default;fontFamily=Helvetica;fontSize=12;fontColor=default;startArrow=ERone;startFill=0;endArrow=ERmany;endFill=0;startSize=8;endSize=8;" edge="1" parent="1" source="O2P2nsYGGp_tVQYiS5PV-107" target="O2P2nsYGGp_tVQYiS5PV-67">
          <mxGeometry relative="1" as="geometry">
            <Array as="points">
              <mxPoint x="-180" y="-294" />
              <mxPoint x="-180" y="-218" />
              <mxPoint x="84" y="-220" />
              <mxPoint x="84" y="-175" />
            </Array>
          </mxGeometry>
        </mxCell>
        <mxCell id="O2P2nsYGGp_tVQYiS5PV-120" value="ClassLetters" style="shape=table;startSize=30;container=1;collapsible=1;childLayout=tableLayout;fixedRows=1;rowLines=0;fontStyle=1;align=center;resizeLast=1;html=1;fontFamily=Helvetica;fontSize=12;fontColor=default;" vertex="1" parent="1">
          <mxGeometry x="109" y="288" width="180" height="90" as="geometry" />
        </mxCell>
        <mxCell id="O2P2nsYGGp_tVQYiS5PV-121" value="" style="shape=tableRow;horizontal=0;startSize=0;swimlaneHead=0;swimlaneBody=0;fillColor=#008a00;collapsible=0;dropTarget=0;points=[[0,0.5],[1,0.5]];portConstraint=eastwest;top=0;left=0;right=0;bottom=1;fontFamily=Helvetica;fontSize=12;fontColor=#ffffff;strokeColor=#005700;" vertex="1" parent="O2P2nsYGGp_tVQYiS5PV-120">
          <mxGeometry y="30" width="180" height="30" as="geometry" />
        </mxCell>
        <mxCell id="O2P2nsYGGp_tVQYiS5PV-122" value="PK" style="shape=partialRectangle;connectable=0;fillColor=none;top=0;left=0;bottom=0;right=0;fontStyle=1;overflow=hidden;whiteSpace=wrap;html=1;fontFamily=Helvetica;fontSize=12;fontColor=default;" vertex="1" parent="O2P2nsYGGp_tVQYiS5PV-121">
          <mxGeometry width="30" height="30" as="geometry">
            <mxRectangle width="30" height="30" as="alternateBounds" />
          </mxGeometry>
        </mxCell>
        <mxCell id="O2P2nsYGGp_tVQYiS5PV-123" value="LetterID (int 2)" style="shape=partialRectangle;connectable=0;fillColor=none;top=0;left=0;bottom=0;right=0;align=left;spacingLeft=6;fontStyle=5;overflow=hidden;whiteSpace=wrap;html=1;fontFamily=Helvetica;fontSize=12;fontColor=default;" vertex="1" parent="O2P2nsYGGp_tVQYiS5PV-121">
          <mxGeometry x="30" width="150" height="30" as="geometry">
            <mxRectangle width="150" height="30" as="alternateBounds" />
          </mxGeometry>
        </mxCell>
        <mxCell id="O2P2nsYGGp_tVQYiS5PV-124" value="" style="shape=tableRow;horizontal=0;startSize=0;swimlaneHead=0;swimlaneBody=0;fillColor=none;collapsible=0;dropTarget=0;points=[[0,0.5],[1,0.5]];portConstraint=eastwest;top=0;left=0;right=0;bottom=0;fontFamily=Helvetica;fontSize=12;fontColor=default;" vertex="1" parent="O2P2nsYGGp_tVQYiS5PV-120">
          <mxGeometry y="60" width="180" height="30" as="geometry" />
        </mxCell>
        <mxCell id="O2P2nsYGGp_tVQYiS5PV-125" value="" style="shape=partialRectangle;connectable=0;fillColor=#0050ef;top=0;left=0;bottom=0;right=0;editable=1;overflow=hidden;whiteSpace=wrap;html=1;fontFamily=Helvetica;fontSize=12;fontColor=#ffffff;strokeColor=#001DBC;" vertex="1" parent="O2P2nsYGGp_tVQYiS5PV-124">
          <mxGeometry width="30" height="30" as="geometry">
            <mxRectangle width="30" height="30" as="alternateBounds" />
          </mxGeometry>
        </mxCell>
        <mxCell id="O2P2nsYGGp_tVQYiS5PV-126" value="Name (str 1)" style="shape=partialRectangle;connectable=0;fillColor=none;top=0;left=0;bottom=0;right=0;align=left;spacingLeft=6;overflow=hidden;whiteSpace=wrap;html=1;fontFamily=Helvetica;fontSize=12;fontColor=default;" vertex="1" parent="O2P2nsYGGp_tVQYiS5PV-124">
          <mxGeometry x="30" width="150" height="30" as="geometry">
            <mxRectangle width="150" height="30" as="alternateBounds" />
          </mxGeometry>
        </mxCell>
        <mxCell id="O2P2nsYGGp_tVQYiS5PV-133" style="edgeStyle=none;shape=connector;rounded=0;orthogonalLoop=1;jettySize=auto;html=1;exitX=0;exitY=0.5;exitDx=0;exitDy=0;entryX=1;entryY=0.5;entryDx=0;entryDy=0;labelBackgroundColor=default;strokeColor=default;fontFamily=Helvetica;fontSize=12;fontColor=default;startArrow=ERone;startFill=0;endArrow=ERmany;endFill=0;startSize=8;endSize=8;" edge="1" parent="1" source="O2P2nsYGGp_tVQYiS5PV-121" target="O2P2nsYGGp_tVQYiS5PV-25">
          <mxGeometry relative="1" as="geometry" />
        </mxCell>
        <mxCell id="O2P2nsYGGp_tVQYiS5PV-137" value="Teachers" style="shape=table;startSize=30;container=1;collapsible=1;childLayout=tableLayout;fixedRows=1;rowLines=0;fontStyle=1;align=center;resizeLast=1;html=1;fontFamily=Helvetica;fontSize=12;fontColor=default;" vertex="1" parent="1">
          <mxGeometry x="391" y="71" width="180" height="190" as="geometry" />
        </mxCell>
        <mxCell id="O2P2nsYGGp_tVQYiS5PV-138" value="" style="shape=tableRow;horizontal=0;startSize=0;swimlaneHead=0;swimlaneBody=0;fillColor=#008a00;collapsible=0;dropTarget=0;points=[[0,0.5],[1,0.5]];portConstraint=eastwest;top=0;left=0;right=0;bottom=1;fontFamily=Helvetica;fontSize=12;fontColor=#ffffff;strokeColor=#005700;" vertex="1" parent="O2P2nsYGGp_tVQYiS5PV-137">
          <mxGeometry y="30" width="180" height="40" as="geometry" />
        </mxCell>
        <mxCell id="O2P2nsYGGp_tVQYiS5PV-139" value="PK" style="shape=partialRectangle;connectable=0;fillColor=none;top=0;left=0;bottom=0;right=0;fontStyle=1;overflow=hidden;whiteSpace=wrap;html=1;fontFamily=Helvetica;fontSize=12;fontColor=default;" vertex="1" parent="O2P2nsYGGp_tVQYiS5PV-138">
          <mxGeometry width="30" height="40" as="geometry">
            <mxRectangle width="30" height="40" as="alternateBounds" />
          </mxGeometry>
        </mxCell>
        <mxCell id="O2P2nsYGGp_tVQYiS5PV-140" value="TeacherID" style="shape=partialRectangle;connectable=0;fillColor=none;top=0;left=0;bottom=0;right=0;align=left;spacingLeft=6;fontStyle=5;overflow=hidden;whiteSpace=wrap;html=1;fontFamily=Helvetica;fontSize=12;fontColor=default;" vertex="1" parent="O2P2nsYGGp_tVQYiS5PV-138">
          <mxGeometry x="30" width="150" height="40" as="geometry">
            <mxRectangle width="150" height="40" as="alternateBounds" />
          </mxGeometry>
        </mxCell>
        <mxCell id="O2P2nsYGGp_tVQYiS5PV-141" value="" style="shape=tableRow;horizontal=0;startSize=0;swimlaneHead=0;swimlaneBody=0;fillColor=none;collapsible=0;dropTarget=0;points=[[0,0.5],[1,0.5]];portConstraint=eastwest;top=0;left=0;right=0;bottom=0;fontFamily=Helvetica;fontSize=12;fontColor=default;" vertex="1" parent="O2P2nsYGGp_tVQYiS5PV-137">
          <mxGeometry y="70" width="180" height="30" as="geometry" />
        </mxCell>
        <mxCell id="O2P2nsYGGp_tVQYiS5PV-142" value="" style="shape=partialRectangle;connectable=0;fillColor=none;top=0;left=0;bottom=0;right=0;editable=1;overflow=hidden;whiteSpace=wrap;html=1;fontFamily=Helvetica;fontSize=12;fontColor=default;" vertex="1" parent="O2P2nsYGGp_tVQYiS5PV-141">
          <mxGeometry width="30" height="30" as="geometry">
            <mxRectangle width="30" height="30" as="alternateBounds" />
          </mxGeometry>
        </mxCell>
        <mxCell id="O2P2nsYGGp_tVQYiS5PV-143" value="LastName (str 30)" style="shape=partialRectangle;connectable=0;fillColor=none;top=0;left=0;bottom=0;right=0;align=left;spacingLeft=6;overflow=hidden;whiteSpace=wrap;html=1;fontFamily=Helvetica;fontSize=12;fontColor=default;" vertex="1" parent="O2P2nsYGGp_tVQYiS5PV-141">
          <mxGeometry x="30" width="150" height="30" as="geometry">
            <mxRectangle width="150" height="30" as="alternateBounds" />
          </mxGeometry>
        </mxCell>
        <mxCell id="O2P2nsYGGp_tVQYiS5PV-144" value="" style="shape=tableRow;horizontal=0;startSize=0;swimlaneHead=0;swimlaneBody=0;fillColor=none;collapsible=0;dropTarget=0;points=[[0,0.5],[1,0.5]];portConstraint=eastwest;top=0;left=0;right=0;bottom=0;fontFamily=Helvetica;fontSize=12;fontColor=default;" vertex="1" parent="O2P2nsYGGp_tVQYiS5PV-137">
          <mxGeometry y="100" width="180" height="30" as="geometry" />
        </mxCell>
        <mxCell id="O2P2nsYGGp_tVQYiS5PV-145" value="" style="shape=partialRectangle;connectable=0;fillColor=none;top=0;left=0;bottom=0;right=0;editable=1;overflow=hidden;whiteSpace=wrap;html=1;fontFamily=Helvetica;fontSize=12;fontColor=default;" vertex="1" parent="O2P2nsYGGp_tVQYiS5PV-144">
          <mxGeometry width="30" height="30" as="geometry">
            <mxRectangle width="30" height="30" as="alternateBounds" />
          </mxGeometry>
        </mxCell>
        <mxCell id="O2P2nsYGGp_tVQYiS5PV-146" value="FirstName str (30)" style="shape=partialRectangle;connectable=0;fillColor=none;top=0;left=0;bottom=0;right=0;align=left;spacingLeft=6;overflow=hidden;whiteSpace=wrap;html=1;fontFamily=Helvetica;fontSize=12;fontColor=default;" vertex="1" parent="O2P2nsYGGp_tVQYiS5PV-144">
          <mxGeometry x="30" width="150" height="30" as="geometry">
            <mxRectangle width="150" height="30" as="alternateBounds" />
          </mxGeometry>
        </mxCell>
        <mxCell id="O2P2nsYGGp_tVQYiS5PV-147" value="" style="shape=tableRow;horizontal=0;startSize=0;swimlaneHead=0;swimlaneBody=0;fillColor=none;collapsible=0;dropTarget=0;points=[[0,0.5],[1,0.5]];portConstraint=eastwest;top=0;left=0;right=0;bottom=0;fontFamily=Helvetica;fontSize=12;fontColor=default;" vertex="1" parent="O2P2nsYGGp_tVQYiS5PV-137">
          <mxGeometry y="130" width="180" height="30" as="geometry" />
        </mxCell>
        <mxCell id="O2P2nsYGGp_tVQYiS5PV-148" value="" style="shape=partialRectangle;connectable=0;fillColor=none;top=0;left=0;bottom=0;right=0;editable=1;overflow=hidden;whiteSpace=wrap;html=1;fontFamily=Helvetica;fontSize=12;fontColor=default;" vertex="1" parent="O2P2nsYGGp_tVQYiS5PV-147">
          <mxGeometry width="30" height="30" as="geometry">
            <mxRectangle width="30" height="30" as="alternateBounds" />
          </mxGeometry>
        </mxCell>
        <mxCell id="O2P2nsYGGp_tVQYiS5PV-149" value="Category (int 1)" style="shape=partialRectangle;connectable=0;fillColor=none;top=0;left=0;bottom=0;right=0;align=left;spacingLeft=6;overflow=hidden;whiteSpace=wrap;html=1;fontFamily=Helvetica;fontSize=12;fontColor=default;" vertex="1" parent="O2P2nsYGGp_tVQYiS5PV-147">
          <mxGeometry x="30" width="150" height="30" as="geometry">
            <mxRectangle width="150" height="30" as="alternateBounds" />
          </mxGeometry>
        </mxCell>
        <mxCell id="O2P2nsYGGp_tVQYiS5PV-197" value="" style="shape=tableRow;horizontal=0;startSize=0;swimlaneHead=0;swimlaneBody=0;fillColor=none;collapsible=0;dropTarget=0;points=[[0,0.5],[1,0.5]];portConstraint=eastwest;top=0;left=0;right=0;bottom=0;fontFamily=Helvetica;fontSize=12;fontColor=default;" vertex="1" parent="O2P2nsYGGp_tVQYiS5PV-137">
          <mxGeometry y="160" width="180" height="30" as="geometry" />
        </mxCell>
        <mxCell id="O2P2nsYGGp_tVQYiS5PV-198" value="" style="shape=partialRectangle;connectable=0;fillColor=none;top=0;left=0;bottom=0;right=0;editable=1;overflow=hidden;whiteSpace=wrap;html=1;fontFamily=Helvetica;fontSize=12;fontColor=default;" vertex="1" parent="O2P2nsYGGp_tVQYiS5PV-197">
          <mxGeometry width="30" height="30" as="geometry">
            <mxRectangle width="30" height="30" as="alternateBounds" />
          </mxGeometry>
        </mxCell>
        <mxCell id="O2P2nsYGGp_tVQYiS5PV-199" value="Comment (text 100)" style="shape=partialRectangle;connectable=0;fillColor=none;top=0;left=0;bottom=0;right=0;align=left;spacingLeft=6;overflow=hidden;whiteSpace=wrap;html=1;fontFamily=Helvetica;fontSize=12;fontColor=default;" vertex="1" parent="O2P2nsYGGp_tVQYiS5PV-197">
          <mxGeometry x="30" width="150" height="30" as="geometry">
            <mxRectangle width="150" height="30" as="alternateBounds" />
          </mxGeometry>
        </mxCell>
        <mxCell id="O2P2nsYGGp_tVQYiS5PV-154" style="edgeStyle=none;shape=connector;rounded=0;orthogonalLoop=1;jettySize=auto;html=1;entryX=0;entryY=0.5;entryDx=0;entryDy=0;labelBackgroundColor=default;strokeColor=default;fontFamily=Helvetica;fontSize=12;fontColor=default;startArrow=ERone;startFill=0;endArrow=ERmany;endFill=0;startSize=8;endSize=8;" edge="1" parent="1" target="O2P2nsYGGp_tVQYiS5PV-171">
          <mxGeometry relative="1" as="geometry">
            <mxPoint x="391" y="111" as="sourcePoint" />
            <Array as="points">
              <mxPoint x="341" y="111" />
              <mxPoint x="341" y="-145" />
            </Array>
          </mxGeometry>
        </mxCell>
        <mxCell id="O2P2nsYGGp_tVQYiS5PV-155" value="Lessons_Time_Line" style="shape=table;startSize=30;container=1;collapsible=1;childLayout=tableLayout;fixedRows=1;rowLines=0;fontStyle=1;align=center;resizeLast=1;html=1;fontFamily=Helvetica;fontSize=12;fontColor=default;" vertex="1" parent="1">
          <mxGeometry x="391" y="-340" width="180" height="240" as="geometry" />
        </mxCell>
        <mxCell id="O2P2nsYGGp_tVQYiS5PV-156" value="" style="shape=tableRow;horizontal=0;startSize=0;swimlaneHead=0;swimlaneBody=0;fillColor=#008a00;collapsible=0;dropTarget=0;points=[[0,0.5],[1,0.5]];portConstraint=eastwest;top=0;left=0;right=0;bottom=1;fontFamily=Helvetica;fontSize=12;fontColor=#ffffff;strokeColor=#005700;" vertex="1" parent="O2P2nsYGGp_tVQYiS5PV-155">
          <mxGeometry y="30" width="180" height="30" as="geometry" />
        </mxCell>
        <mxCell id="O2P2nsYGGp_tVQYiS5PV-157" value="PK" style="shape=partialRectangle;connectable=0;fillColor=none;top=0;left=0;bottom=0;right=0;fontStyle=1;overflow=hidden;whiteSpace=wrap;html=1;fontFamily=Helvetica;fontSize=12;fontColor=default;" vertex="1" parent="O2P2nsYGGp_tVQYiS5PV-156">
          <mxGeometry width="30" height="30" as="geometry">
            <mxRectangle width="30" height="30" as="alternateBounds" />
          </mxGeometry>
        </mxCell>
        <mxCell id="O2P2nsYGGp_tVQYiS5PV-158" value="TimeLineID" style="shape=partialRectangle;connectable=0;fillColor=none;top=0;left=0;bottom=0;right=0;align=left;spacingLeft=6;fontStyle=5;overflow=hidden;whiteSpace=wrap;html=1;fontFamily=Helvetica;fontSize=12;fontColor=default;" vertex="1" parent="O2P2nsYGGp_tVQYiS5PV-156">
          <mxGeometry x="30" width="150" height="30" as="geometry">
            <mxRectangle width="150" height="30" as="alternateBounds" />
          </mxGeometry>
        </mxCell>
        <mxCell id="O2P2nsYGGp_tVQYiS5PV-159" value="" style="shape=tableRow;horizontal=0;startSize=0;swimlaneHead=0;swimlaneBody=0;fillColor=none;collapsible=0;dropTarget=0;points=[[0,0.5],[1,0.5]];portConstraint=eastwest;top=0;left=0;right=0;bottom=0;fontFamily=Helvetica;fontSize=12;fontColor=default;" vertex="1" parent="O2P2nsYGGp_tVQYiS5PV-155">
          <mxGeometry y="60" width="180" height="30" as="geometry" />
        </mxCell>
        <mxCell id="O2P2nsYGGp_tVQYiS5PV-160" value="" style="shape=partialRectangle;connectable=0;fillColor=#6a00ff;top=0;left=0;bottom=0;right=0;editable=1;overflow=hidden;whiteSpace=wrap;html=1;fontFamily=Helvetica;fontSize=12;fontColor=#ffffff;strokeColor=#3700CC;" vertex="1" parent="O2P2nsYGGp_tVQYiS5PV-159">
          <mxGeometry width="30" height="30" as="geometry">
            <mxRectangle width="30" height="30" as="alternateBounds" />
          </mxGeometry>
        </mxCell>
        <mxCell id="O2P2nsYGGp_tVQYiS5PV-161" value="LessonStart (TimeStamp)" style="shape=partialRectangle;connectable=0;fillColor=none;top=0;left=0;bottom=0;right=0;align=left;spacingLeft=6;overflow=hidden;whiteSpace=wrap;html=1;fontFamily=Helvetica;fontSize=12;fontColor=default;" vertex="1" parent="O2P2nsYGGp_tVQYiS5PV-159">
          <mxGeometry x="30" width="150" height="30" as="geometry">
            <mxRectangle width="150" height="30" as="alternateBounds" />
          </mxGeometry>
        </mxCell>
        <mxCell id="O2P2nsYGGp_tVQYiS5PV-162" value="" style="shape=tableRow;horizontal=0;startSize=0;swimlaneHead=0;swimlaneBody=0;fillColor=none;collapsible=0;dropTarget=0;points=[[0,0.5],[1,0.5]];portConstraint=eastwest;top=0;left=0;right=0;bottom=0;fontFamily=Helvetica;fontSize=12;fontColor=default;" vertex="1" parent="O2P2nsYGGp_tVQYiS5PV-155">
          <mxGeometry y="90" width="180" height="30" as="geometry" />
        </mxCell>
        <mxCell id="O2P2nsYGGp_tVQYiS5PV-163" value="" style="shape=partialRectangle;connectable=0;fillColor=#6a00ff;top=0;left=0;bottom=0;right=0;editable=1;overflow=hidden;whiteSpace=wrap;html=1;fontFamily=Helvetica;fontSize=12;fontColor=#ffffff;strokeColor=#3700CC;" vertex="1" parent="O2P2nsYGGp_tVQYiS5PV-162">
          <mxGeometry width="30" height="30" as="geometry">
            <mxRectangle width="30" height="30" as="alternateBounds" />
          </mxGeometry>
        </mxCell>
        <mxCell id="O2P2nsYGGp_tVQYiS5PV-164" value="LessonEnd (TimeStamp)" style="shape=partialRectangle;connectable=0;fillColor=none;top=0;left=0;bottom=0;right=0;align=left;spacingLeft=6;overflow=hidden;whiteSpace=wrap;html=1;fontFamily=Helvetica;fontSize=12;fontColor=default;" vertex="1" parent="O2P2nsYGGp_tVQYiS5PV-162">
          <mxGeometry x="30" width="150" height="30" as="geometry">
            <mxRectangle width="150" height="30" as="alternateBounds" />
          </mxGeometry>
        </mxCell>
        <mxCell id="O2P2nsYGGp_tVQYiS5PV-165" value="" style="shape=tableRow;horizontal=0;startSize=0;swimlaneHead=0;swimlaneBody=0;fillColor=none;collapsible=0;dropTarget=0;points=[[0,0.5],[1,0.5]];portConstraint=eastwest;top=0;left=0;right=0;bottom=0;fontFamily=Helvetica;fontSize=12;fontColor=default;" vertex="1" parent="O2P2nsYGGp_tVQYiS5PV-155">
          <mxGeometry y="120" width="180" height="30" as="geometry" />
        </mxCell>
        <mxCell id="O2P2nsYGGp_tVQYiS5PV-166" value="" style="shape=partialRectangle;connectable=0;fillColor=none;top=0;left=0;bottom=0;right=0;editable=1;overflow=hidden;whiteSpace=wrap;html=1;fontFamily=Helvetica;fontSize=12;fontColor=default;" vertex="1" parent="O2P2nsYGGp_tVQYiS5PV-165">
          <mxGeometry width="30" height="30" as="geometry">
            <mxRectangle width="30" height="30" as="alternateBounds" />
          </mxGeometry>
        </mxCell>
        <mxCell id="O2P2nsYGGp_tVQYiS5PV-167" value="Lesson (int 6)" style="shape=partialRectangle;connectable=0;fillColor=none;top=0;left=0;bottom=0;right=0;align=left;spacingLeft=6;overflow=hidden;whiteSpace=wrap;html=1;fontFamily=Helvetica;fontSize=12;fontColor=default;" vertex="1" parent="O2P2nsYGGp_tVQYiS5PV-165">
          <mxGeometry x="30" width="150" height="30" as="geometry">
            <mxRectangle width="150" height="30" as="alternateBounds" />
          </mxGeometry>
        </mxCell>
        <mxCell id="O2P2nsYGGp_tVQYiS5PV-174" value="" style="shape=tableRow;horizontal=0;startSize=0;swimlaneHead=0;swimlaneBody=0;fillColor=none;collapsible=0;dropTarget=0;points=[[0,0.5],[1,0.5]];portConstraint=eastwest;top=0;left=0;right=0;bottom=0;fontFamily=Helvetica;fontSize=12;fontColor=default;" vertex="1" parent="O2P2nsYGGp_tVQYiS5PV-155">
          <mxGeometry y="150" width="180" height="30" as="geometry" />
        </mxCell>
        <mxCell id="O2P2nsYGGp_tVQYiS5PV-175" value="" style="shape=partialRectangle;connectable=0;fillColor=none;top=0;left=0;bottom=0;right=0;editable=1;overflow=hidden;whiteSpace=wrap;html=1;fontFamily=Helvetica;fontSize=12;fontColor=default;" vertex="1" parent="O2P2nsYGGp_tVQYiS5PV-174">
          <mxGeometry width="30" height="30" as="geometry">
            <mxRectangle width="30" height="30" as="alternateBounds" />
          </mxGeometry>
        </mxCell>
        <mxCell id="O2P2nsYGGp_tVQYiS5PV-176" value="Class (int 5)" style="shape=partialRectangle;connectable=0;fillColor=none;top=0;left=0;bottom=0;right=0;align=left;spacingLeft=6;overflow=hidden;whiteSpace=wrap;html=1;fontFamily=Helvetica;fontSize=12;fontColor=default;" vertex="1" parent="O2P2nsYGGp_tVQYiS5PV-174">
          <mxGeometry x="30" width="150" height="30" as="geometry">
            <mxRectangle width="150" height="30" as="alternateBounds" />
          </mxGeometry>
        </mxCell>
        <mxCell id="O2P2nsYGGp_tVQYiS5PV-171" value="" style="shape=tableRow;horizontal=0;startSize=0;swimlaneHead=0;swimlaneBody=0;fillColor=none;collapsible=0;dropTarget=0;points=[[0,0.5],[1,0.5]];portConstraint=eastwest;top=0;left=0;right=0;bottom=0;fontFamily=Helvetica;fontSize=12;fontColor=default;" vertex="1" parent="O2P2nsYGGp_tVQYiS5PV-155">
          <mxGeometry y="180" width="180" height="30" as="geometry" />
        </mxCell>
        <mxCell id="O2P2nsYGGp_tVQYiS5PV-172" value="" style="shape=partialRectangle;connectable=0;fillColor=none;top=0;left=0;bottom=0;right=0;editable=1;overflow=hidden;whiteSpace=wrap;html=1;fontFamily=Helvetica;fontSize=12;fontColor=default;" vertex="1" parent="O2P2nsYGGp_tVQYiS5PV-171">
          <mxGeometry width="30" height="30" as="geometry">
            <mxRectangle width="30" height="30" as="alternateBounds" />
          </mxGeometry>
        </mxCell>
        <mxCell id="O2P2nsYGGp_tVQYiS5PV-173" value="Teacher (int 2)" style="shape=partialRectangle;connectable=0;fillColor=none;top=0;left=0;bottom=0;right=0;align=left;spacingLeft=6;overflow=hidden;whiteSpace=wrap;html=1;fontFamily=Helvetica;fontSize=12;fontColor=default;" vertex="1" parent="O2P2nsYGGp_tVQYiS5PV-171">
          <mxGeometry x="30" width="150" height="30" as="geometry">
            <mxRectangle width="150" height="30" as="alternateBounds" />
          </mxGeometry>
        </mxCell>
        <mxCell id="O2P2nsYGGp_tVQYiS5PV-177" value="" style="shape=tableRow;horizontal=0;startSize=0;swimlaneHead=0;swimlaneBody=0;fillColor=none;collapsible=0;dropTarget=0;points=[[0,0.5],[1,0.5]];portConstraint=eastwest;top=0;left=0;right=0;bottom=0;fontFamily=Helvetica;fontSize=12;fontColor=default;" vertex="1" parent="O2P2nsYGGp_tVQYiS5PV-155">
          <mxGeometry y="210" width="180" height="30" as="geometry" />
        </mxCell>
        <mxCell id="O2P2nsYGGp_tVQYiS5PV-178" value="" style="shape=partialRectangle;connectable=0;fillColor=#6a00ff;top=0;left=0;bottom=0;right=0;editable=1;overflow=hidden;whiteSpace=wrap;html=1;fontFamily=Helvetica;fontSize=12;fontColor=#ffffff;strokeColor=#3700CC;" vertex="1" parent="O2P2nsYGGp_tVQYiS5PV-177">
          <mxGeometry width="30" height="30" as="geometry">
            <mxRectangle width="30" height="30" as="alternateBounds" />
          </mxGeometry>
        </mxCell>
        <mxCell id="O2P2nsYGGp_tVQYiS5PV-179" value="Room (int 3)" style="shape=partialRectangle;connectable=0;fillColor=none;top=0;left=0;bottom=0;right=0;align=left;spacingLeft=6;overflow=hidden;whiteSpace=wrap;html=1;fontFamily=Helvetica;fontSize=12;fontColor=default;" vertex="1" parent="O2P2nsYGGp_tVQYiS5PV-177">
          <mxGeometry x="30" width="150" height="30" as="geometry">
            <mxRectangle width="150" height="30" as="alternateBounds" />
          </mxGeometry>
        </mxCell>
        <mxCell id="O2P2nsYGGp_tVQYiS5PV-168" value="" style="shape=tableRow;horizontal=0;startSize=0;swimlaneHead=0;swimlaneBody=0;fillColor=none;collapsible=0;dropTarget=0;points=[[0,0.5],[1,0.5]];portConstraint=eastwest;top=0;left=0;right=0;bottom=0;fontSize=16;" vertex="1" parent="1">
          <mxGeometry x="109" y="-160" width="238" height="30" as="geometry" />
        </mxCell>
        <mxCell id="O2P2nsYGGp_tVQYiS5PV-169" value="" style="shape=partialRectangle;connectable=0;fillColor=none;top=0;left=0;bottom=0;right=0;editable=1;overflow=hidden;whiteSpace=wrap;html=1;fontSize=16;" vertex="1" parent="O2P2nsYGGp_tVQYiS5PV-168">
          <mxGeometry width="30" height="30" as="geometry">
            <mxRectangle width="30" height="30" as="alternateBounds" />
          </mxGeometry>
        </mxCell>
        <mxCell id="O2P2nsYGGp_tVQYiS5PV-181" style="edgeStyle=none;shape=connector;rounded=0;orthogonalLoop=1;jettySize=auto;html=1;exitX=0;exitY=0.5;exitDx=0;exitDy=0;entryX=1;entryY=0.5;entryDx=0;entryDy=0;labelBackgroundColor=default;strokeColor=default;fontFamily=Helvetica;fontSize=12;fontColor=default;startArrow=ERone;startFill=0;endArrow=ERmany;endFill=0;startSize=8;endSize=8;" edge="1" parent="1" source="O2P2nsYGGp_tVQYiS5PV-156" target="O2P2nsYGGp_tVQYiS5PV-70">
          <mxGeometry relative="1" as="geometry">
            <Array as="points">
              <mxPoint x="319" y="-295" />
              <mxPoint x="319" y="-265" />
            </Array>
          </mxGeometry>
        </mxCell>
        <mxCell id="O2P2nsYGGp_tVQYiS5PV-182" style="edgeStyle=none;shape=connector;rounded=0;orthogonalLoop=1;jettySize=auto;html=1;entryX=0;entryY=0.5;entryDx=0;entryDy=0;labelBackgroundColor=default;strokeColor=default;fontFamily=Helvetica;fontSize=12;fontColor=default;startArrow=ERone;startFill=0;endArrow=ERmany;endFill=0;startSize=8;endSize=8;" edge="1" parent="1" target="O2P2nsYGGp_tVQYiS5PV-177">
          <mxGeometry relative="1" as="geometry">
            <mxPoint x="391" y="-23" as="sourcePoint" />
            <Array as="points">
              <mxPoint x="365" y="-23" />
              <mxPoint x="365" y="-115" />
            </Array>
          </mxGeometry>
        </mxCell>
        <mxCell id="O2P2nsYGGp_tVQYiS5PV-183" style="edgeStyle=none;shape=connector;rounded=0;orthogonalLoop=1;jettySize=auto;html=1;exitX=0.994;exitY=0.261;exitDx=0;exitDy=0;entryX=0;entryY=0.5;entryDx=0;entryDy=0;labelBackgroundColor=default;strokeColor=default;fontFamily=Helvetica;fontSize=12;fontColor=default;startArrow=ERone;startFill=0;endArrow=ERmany;endFill=0;startSize=8;endSize=8;exitPerimeter=0;" edge="1" parent="1" source="O2P2nsYGGp_tVQYiS5PV-16" target="O2P2nsYGGp_tVQYiS5PV-174">
          <mxGeometry relative="1" as="geometry">
            <Array as="points">
              <mxPoint x="82" y="223" />
              <mxPoint x="82" y="-3" />
              <mxPoint x="318" y="-3" />
              <mxPoint x="320" y="-175" />
            </Array>
          </mxGeometry>
        </mxCell>
        <mxCell id="O2P2nsYGGp_tVQYiS5PV-185" style="edgeStyle=none;shape=connector;rounded=0;orthogonalLoop=1;jettySize=auto;html=1;exitX=0;exitY=0.5;exitDx=0;exitDy=0;entryX=0;entryY=0.5;entryDx=0;entryDy=0;labelBackgroundColor=default;strokeColor=default;fontFamily=Helvetica;fontSize=12;fontColor=default;startArrow=ERone;startFill=0;endArrow=ERmany;endFill=0;startSize=8;endSize=8;" edge="1" parent="1" source="O2P2nsYGGp_tVQYiS5PV-16" target="aI7g65Q8ZS7_M0JVx6DZ-11">
          <mxGeometry relative="1" as="geometry">
            <Array as="points">
              <mxPoint x="-184" y="235" />
              <mxPoint x="-184" y="-55" />
            </Array>
          </mxGeometry>
        </mxCell>
        <mxCell id="O2P2nsYGGp_tVQYiS5PV-189" style="edgeStyle=none;shape=connector;rounded=0;orthogonalLoop=1;jettySize=auto;html=1;exitX=1;exitY=0.5;exitDx=0;exitDy=0;entryX=0;entryY=0.5;entryDx=0;entryDy=0;labelBackgroundColor=default;strokeColor=default;fontFamily=Helvetica;fontSize=12;fontColor=default;startArrow=ERone;startFill=0;endArrow=ERmany;endFill=0;startSize=8;endSize=8;" edge="1" parent="1" source="aI7g65Q8ZS7_M0JVx6DZ-2" target="O2P2nsYGGp_tVQYiS5PV-168">
          <mxGeometry relative="1" as="geometry" />
        </mxCell>
        <mxCell id="O2P2nsYGGp_tVQYiS5PV-193" style="edgeStyle=none;shape=connector;rounded=0;orthogonalLoop=1;jettySize=auto;html=1;exitX=0;exitY=0.5;exitDx=0;exitDy=0;entryX=0;entryY=0.5;entryDx=0;entryDy=0;labelBackgroundColor=default;strokeColor=default;fontFamily=Helvetica;fontSize=12;fontColor=default;startArrow=ERone;startFill=0;endArrow=ERmany;endFill=0;startSize=8;endSize=8;" edge="1" parent="1" source="O2P2nsYGGp_tVQYiS5PV-138" target="O2P2nsYGGp_tVQYiS5PV-190">
          <mxGeometry relative="1" as="geometry">
            <Array as="points">
              <mxPoint x="343" y="120" />
              <mxPoint x="343" y="404" />
              <mxPoint x="-186" y="404" />
              <mxPoint x="-186" y="363" />
            </Array>
          </mxGeometry>
        </mxCell>
        <mxCell id="O2P2nsYGGp_tVQYiS5PV-221" value="" style="rounded=0;whiteSpace=wrap;html=1;fontFamily=Helvetica;fontSize=12;fontColor=#ffffff;fillColor=#008a00;strokeColor=#005700;" vertex="1" parent="1">
          <mxGeometry x="-782" y="-55" width="33" height="26" as="geometry" />
        </mxCell>
        <mxCell id="O2P2nsYGGp_tVQYiS5PV-222" value="" style="rounded=0;whiteSpace=wrap;html=1;fontFamily=Helvetica;fontSize=12;fontColor=#ffffff;fillColor=#0050ef;strokeColor=#001DBC;" vertex="1" parent="1">
          <mxGeometry x="-782" y="-16" width="33" height="26" as="geometry" />
        </mxCell>
        <mxCell id="O2P2nsYGGp_tVQYiS5PV-223" value="" style="rounded=0;whiteSpace=wrap;html=1;fontFamily=Helvetica;fontSize=12;fontColor=#ffffff;fillColor=#6a00ff;strokeColor=#3700CC;" vertex="1" parent="1">
          <mxGeometry x="-782" y="23" width="33" height="26" as="geometry" />
        </mxCell>
        <mxCell id="O2P2nsYGGp_tVQYiS5PV-224" value="PrimaryKey" style="text;strokeColor=none;fillColor=none;spacingLeft=4;spacingRight=4;overflow=hidden;rotatable=0;points=[[0,0.5],[1,0.5]];portConstraint=eastwest;fontSize=12;whiteSpace=wrap;html=1;fontFamily=Helvetica;fontColor=#000000;" vertex="1" parent="1">
          <mxGeometry x="-744" y="-51" width="383" height="30" as="geometry" />
        </mxCell>
        <mxCell id="O2P2nsYGGp_tVQYiS5PV-225" value="UniqueKey" style="text;strokeColor=none;fillColor=none;spacingLeft=4;spacingRight=4;overflow=hidden;rotatable=0;points=[[0,0.5],[1,0.5]];portConstraint=eastwest;fontSize=12;whiteSpace=wrap;html=1;fontFamily=Helvetica;fontColor=#000000;" vertex="1" parent="1">
          <mxGeometry x="-744" y="-16" width="383" height="30" as="geometry" />
        </mxCell>
        <mxCell id="O2P2nsYGGp_tVQYiS5PV-226" value="UniqueKey как связка - сочетание значений должно быть уникальным" style="text;strokeColor=none;fillColor=none;spacingLeft=4;spacingRight=4;overflow=hidden;rotatable=0;points=[[0,0.5],[1,0.5]];portConstraint=eastwest;fontSize=12;whiteSpace=wrap;html=1;fontFamily=Helvetica;fontColor=#000000;" vertex="1" parent="1">
          <mxGeometry x="-744" y="23" width="423" height="30" as="geometry" />
        </mxCell>
      </root>
    </mxGraphModel>
  </diagram>
</mxfile>
